<svg id="Calque_1" data-name="Calque 1" xmlns="http://www.w3.org/2000/svg" viewBox="0 0 192.24 50.95"><title>mobigo</title><path d="M147.1,28.41A5.86,5.86,0,1,1,153,22.55a5.87,5.87,0,0,1-5.86,5.86m0-17.93a12.07,12.07,0,1,0,12.06,12.07A12.06,12.06,0,0,0,147.1,10.48" style="fill:#a2bb00"/><path d="M129.77,22.64a.81.81,0,0,0-.48-.15h-4.81c-.37,0-.56.18-.56.52v5.51h-8.38a6,6,0,0,1-2.39-.48,6.09,6.09,0,0,1-3.68-5.5,4.93,4.93,0,0,1,.48-2.12,5.6,5.6,0,0,1,1.34-2,6.1,6.1,0,0,1,4.33-1.77h16.8c.17-.38.36-.74.56-1.09a16,16,0,0,1,4-5.08H117.19a14.58,14.58,0,0,0-6.25,1,12.77,12.77,0,0,0-6.6,6.5,10.1,10.1,0,0,0-1,4.34,11.89,11.89,0,0,0,1,4.75A12.37,12.37,0,0,0,106.91,31a12.15,12.15,0,0,0,8.63,3.55l11.42,0a3,3,0,0,0,3-3L130,23a.48.48,0,0,0-.22-.37" style="fill:#a2bb00"/><path d="M81.47,26.76a5.92,5.92,0,0,1-8.5,0,6,6,0,0,1-1.72-4.3,6,6,0,0,1,.45-2.29A5.65,5.65,0,0,1,73,18.26a6,6,0,0,1,9.77,1.91,6,6,0,0,1,.45,2.29,6.06,6.06,0,0,1-1.72,4.3m6.89-8.91A12,12,0,0,0,85.76,14a12.39,12.39,0,0,0-3.9-2.6,11.75,11.75,0,0,0-4.64-.92,11.23,11.23,0,0,0-5.91,1.59c0-4,0-8.07,0-8.07V4L69,.42l0,0a1,1,0,0,0-1.58,0L65.15,4h0c0,.82,0,20.62,0,20.63A15.69,15.69,0,0,1,49.52,40.37h-.9l-.48,0-.37,0h-.14A15.59,15.59,0,0,1,33.58,24.61V9.28a9.06,9.06,0,0,0-.75-3.57,9.35,9.35,0,0,0-2-3,9.46,9.46,0,0,0-2.9-2A8.45,8.45,0,0,0,24.44,0a8.76,8.76,0,0,0-6.12,2.29h0a9.19,9.19,0,0,0-6-2.29A9.33,9.33,0,0,0,6.08,2.29H6A8.44,8.44,0,0,0,4,.87,5.37,5.37,0,0,0,3.17.54,9,9,0,0,0,.65,0,.58.58,0,0,0,0,.65V5.53c0,.38.17.57.52.57a4.6,4.6,0,0,1,1.57.74h0a3.59,3.59,0,0,1,.72,1.07,3.08,3.08,0,0,1,.28,1.28V24.3l2.34,3.37a.92.92,0,0,0,1.5,0l2.22-3.44V9.19A3,3,0,0,1,10,7a3,3,0,0,1,2.2-.87A2.92,2.92,0,0,1,14.38,7a3,3,0,0,1,.87,2.22V23.74a.62.62,0,0,0,.19.46.65.65,0,0,0,.46.2h4.84a.5.5,0,0,0,.41-.2.73.73,0,0,0,.15-.46V10l2.28-3.45a1,1,0,0,1,1.6,0L27.49,10s.07,14.58.07,14.66a21.58,21.58,0,0,0,4.51,13.21,22.46,22.46,0,0,0,2.27,2.51,21.82,21.82,0,0,0,30.18,0c.42-.41.83-.83,1.22-1.27a21.82,21.82,0,0,0,4.18-7s0,0,0,0a12.58,12.58,0,0,0,2.61,1.53,11.92,11.92,0,0,0,9.28,0A13,13,0,0,0,85.76,31a12,12,0,0,0,3.52-8.55,11.71,11.71,0,0,0-.92-4.61" style="fill:#006528"/><path d="M49.34,30.31a5.7,5.7,0,0,1-5.7-5.7,5.41,5.41,0,0,1,.17-1.34,5.69,5.69,0,0,1,11.06,0A5.92,5.92,0,0,1,55,24.61a5.7,5.7,0,0,1-5.69,5.7m11.65-7a11.73,11.73,0,0,0-23.3,0,11.9,11.9,0,0,0-.08,1.34,11.73,11.73,0,1,0,23.45,0A11.9,11.9,0,0,0,61,23.27" style="fill:#006528"/><path d="M98.51,0H93.19a.69.69,0,0,0-.48.24.72.72,0,0,0-.24.52V6a.65.65,0,0,0,.24.5.73.73,0,0,0,.48.21h5.32A.73.73,0,0,0,99,6.53a.65.65,0,0,0,.24-.5V.76A.72.72,0,0,0,99,.24.69.69,0,0,0,98.51,0" style="fill:#006528"/><path d="M98.51,12.88H93.19a.75.75,0,0,0-.48.22.65.65,0,0,0-.24.5V33.85a.72.72,0,0,0,.24.52.69.69,0,0,0,.48.24h5.32a.69.69,0,0,0,.47-.24.72.72,0,0,0,.24-.52V13.6a.65.65,0,0,0-.24-.5.75.75,0,0,0-.47-.22" style="fill:#006528"/><path d="M76.9,44H75.68v1.46h1.25c.54,0,.77-.21.77-.74s-.24-.72-.8-.72M77,46.59h-1.3v1.64H77c.61,0,.87-.2.87-.84s-.25-.8-.9-.8m0,2.88H74.21V42.74H77c1.46,0,2.2.65,2.2,1.72a1.43,1.43,0,0,1-.9,1.44v0a1.48,1.48,0,0,1,1.14,1.59c0,1.21-.71,2-2.4,2" style="fill:#e68026"/><path d="M82.58,48.45c.77,0,1-.36,1-1.68s-.28-1.69-1-1.69-1,.36-1,1.69.29,1.68,1,1.68m0,1.14c-1.72,0-2.49-.82-2.49-2.82s.77-2.84,2.49-2.84,2.49.84,2.49,2.84-.75,2.82-2.49,2.82" style="fill:#e68026"/><path d="M90.45,47.55c0,1.32-.74,2-2.28,2s-2.29-.72-2.29-2V44h1.39v3.49c0,.54.29.82.9.82s.89-.26.89-.82V44h1.39Z" style="fill:#e68026"/><path d="M91.51,49.47v-5.4L92.62,44l.13.91h0a1.63,1.63,0,0,1,1.49-1,2.27,2.27,0,0,1,.59.08l-.09,1.37a2.15,2.15,0,0,0-.59-.09,1.28,1.28,0,0,0-1.27,1.44v2.73Z" style="fill:#e68026"/><path d="M96.91,45.65c0,.53.28.67.69.67.59,0,.76-.18.76-.68s-.21-.66-.72-.66-.73.2-.73.67m0,3.24a.64.64,0,0,0-.23.44c0,.38.29.57,1,.57,1,0,1.27-.2,1.27-.51s-.14-.36-.75-.41ZM97,47.22a.32.32,0,0,0-.19.26c0,.14.12.24.36.25l1.29.08c1.27.07,1.76.54,1.76,1.38,0,1.08-.73,1.76-2.49,1.76-1.57,0-2.21-.61-2.21-1.44a1.16,1.16,0,0,1,.42-.88,1,1,0,0,1-.41-.8,1,1,0,0,1,.65-.93,1.47,1.47,0,0,1-.59-1.28c0-1,.57-1.69,2.08-1.69a2.72,2.72,0,0,1,1.36.3l.92-.3.29.66-.58.45a1.69,1.69,0,0,1,.08.58c0,1.05-.59,1.66-2.06,1.66a3.74,3.74,0,0,1-.68-.06" style="fill:#e68026"/><path d="M103,48.45c.77,0,1-.36,1-1.68s-.27-1.69-1-1.69-1,.36-1,1.69.29,1.68,1,1.68m0,1.14c-1.72,0-2.49-.82-2.49-2.82s.77-2.84,2.49-2.84,2.49.84,2.49,2.84-.76,2.82-2.49,2.82" style="fill:#e68026"/><path d="M107.66,45.65c0,.53.28.67.69.67.59,0,.76-.18.76-.68s-.21-.66-.72-.66-.73.2-.73.67m0,3.24a.64.64,0,0,0-.23.44c0,.38.29.57,1,.57,1,0,1.27-.2,1.27-.51s-.14-.36-.75-.41Zm.07-1.67a.32.32,0,0,0-.19.26c0,.14.12.24.36.25l1.29.08c1.27.07,1.76.54,1.76,1.38,0,1.08-.73,1.76-2.5,1.76-1.56,0-2.2-.61-2.2-1.44a1.16,1.16,0,0,1,.42-.88,1,1,0,0,1-.41-.8,1,1,0,0,1,.65-.93,1.47,1.47,0,0,1-.59-1.28c0-1,.57-1.69,2.08-1.69a2.72,2.72,0,0,1,1.36.3l.92-.3.29.66-.58.45a1.69,1.69,0,0,1,.08.58c0,1.05-.59,1.66-2.06,1.66a3.74,3.74,0,0,1-.68-.06" style="fill:#e68026"/><path d="M114.83,49.47V46c0-.6-.3-.84-.88-.84a1.14,1.14,0,0,0-.91.41v3.9h-1.4V44.06l1-.07.21.47a2.26,2.26,0,0,1,1.5-.54c1.14,0,1.87.73,1.87,2.08v3.47Z" style="fill:#e68026"/><path d="M120.4,46.19c0-.8-.37-1.1-1-1.1s-.93.31-1,1.1Zm-3.36.49c0-1.74.76-2.75,2.39-2.75,1.39,0,2.25.81,2.25,2.53a4.45,4.45,0,0,1,0,.65h-3.17c.07.91.51,1.25,1.45,1.25a3.93,3.93,0,0,0,1.45-.27l.15,1.12a4.32,4.32,0,0,1-1.77.35c-1.88,0-2.71-1-2.71-2.88" style="fill:#e68026"/><rect x="122.45" y="45.89" width="2.57" height="1.01" style="fill:#e68026"/><polygon points="127.63 44.1 127.63 45.55 130.09 45.55 130.07 46.85 127.63 46.85 127.63 49.47 126.13 49.47 126.13 42.74 130.56 42.74 130.59 44.1 127.63 44.1" style="fill:#e68026"/><path d="M131.29,49.47v-5.4l1.12-.06.12.91h0a1.63,1.63,0,0,1,1.49-1,2.21,2.21,0,0,1,.59.08l-.09,1.37a2.15,2.15,0,0,0-.59-.09,1.28,1.28,0,0,0-1.27,1.44v2.73Z" style="fill:#e68026"/><path d="M138,47.13a2.41,2.41,0,0,0-.77-.11c-.62,0-.91.24-.91.71s.31.72.77.72.91-.29.91-.64Zm.2,1.82h0a1.91,1.91,0,0,1-1.47.62A1.58,1.58,0,0,1,135,47.75c0-1,.7-1.69,1.94-1.69a3.52,3.52,0,0,1,1,.15v-.32c0-.54-.29-.79-1-.79a3.62,3.62,0,0,0-1.5.29l-.12-1.11a4.8,4.8,0,0,1,1.87-.36c1.6,0,2.16.69,2.16,2.18v3.37H138.3Z" style="fill:#e68026"/><path d="M143.62,49.47V46c0-.6-.3-.84-.88-.84a1.15,1.15,0,0,0-.91.41v3.9h-1.4V44.06l1-.07.21.47a2.26,2.26,0,0,1,1.5-.54c1.15,0,1.87.73,1.87,2.08v3.47Z" style="fill:#e68026"/><path d="M149.54,45.36a2.83,2.83,0,0,0-.92-.17c-1,0-1.35.42-1.35,1.57s.48,1.62,1.32,1.62a2.28,2.28,0,0,0,1-.21l.1,1.09a2.7,2.7,0,0,1-1.39.31c-1.61,0-2.46-.91-2.46-2.81s.74-2.82,2.48-2.82a4,4,0,0,1,1.31.23Z" style="fill:#e68026"/><path d="M153.72,49.47V46c0-.55-.27-.84-.87-.84a1.16,1.16,0,0,0-.92.41v3.9h-1.39v-7l1.39-.08v1.24l0,.72,0,0a2.06,2.06,0,0,1,1.35-.47c1.15,0,1.82.77,1.82,2.08v3.47Z" style="fill:#e68026"/><path d="M159.3,46.19c0-.8-.38-1.1-1-1.1s-.93.31-1,1.1Zm-3.37.49c0-1.74.76-2.75,2.4-2.75,1.39,0,2.24.81,2.24,2.53a4.45,4.45,0,0,1,0,.65h-3.16c.07.91.51,1.25,1.44,1.25a3.93,3.93,0,0,0,1.45-.27l.16,1.12a4.4,4.4,0,0,1-1.78.35c-1.87,0-2.71-1-2.71-2.88" style="fill:#e68026"/><rect x="161.34" y="45.89" width="2.57" height="1.01" style="fill:#e68026"/><path d="M169.29,44.2A3.68,3.68,0,0,0,168,44c-1.22,0-1.62.49-1.62,2.09s.42,2.19,1.65,2.19a3.36,3.36,0,0,0,1.31-.26l.15,1.22a4,4,0,0,1-1.68.37c-2,0-3-1.13-3-3.53s1-3.44,3.12-3.44a4.78,4.78,0,0,1,1.56.28Z" style="fill:#e68026"/><path d="M172.52,48.45c.76,0,1-.36,1-1.68s-.28-1.69-1-1.69-1.05.36-1.05,1.69.29,1.68,1.05,1.68m0,1.14c-1.72,0-2.49-.82-2.49-2.82s.77-2.84,2.49-2.84,2.49.84,2.49,2.84-.76,2.82-2.49,2.82" style="fill:#e68026"/><path d="M181.88,49.47V46a.74.74,0,0,0-.82-.83.73.73,0,0,0-.8.79v3.52h-1.39V46a.7.7,0,0,0-.79-.79,1,1,0,0,0-.81.41v3.9h-1.4v-5.4l1-.08.23.51a2,2,0,0,1,1.38-.57,1.48,1.48,0,0,1,1.43.73A1.88,1.88,0,0,1,183.27,46v3.5Z" style="fill:#e68026"/><path d="M186,45.07v2.78c0,.42.21.6.65.6a1.4,1.4,0,0,0,.43-.06l.08,1a2.66,2.66,0,0,1-.94.16,1.47,1.47,0,0,1-1.61-1.66V45.07H184V44h.67l.23-1.23,1.1-.1V44h1.21v1Z" style="fill:#e68026"/><path d="M191.4,42.28l-1.08,1.3h-1l.53-1.3ZM191,46.19c0-.8-.38-1.1-1-1.1s-.94.31-1,1.1Zm-3.37.49c0-1.74.76-2.75,2.4-2.75,1.39,0,2.24.81,2.24,2.53a4.45,4.45,0,0,1,0,.65H189c.07.91.51,1.25,1.44,1.25a4,4,0,0,0,1.46-.27l.15,1.12a4.4,4.4,0,0,1-1.78.35c-1.87,0-2.71-1-2.71-2.88" style="fill:#e68026"/></svg>